<?xml version="1.0" encoding="UTF-8" standalone="no"?>
<svg
   xmlns:dc="http://purl.org/dc/elements/1.1/"
   xmlns:cc="http://creativecommons.org/ns#"
   xmlns:rdf="http://www.w3.org/1999/02/22-rdf-syntax-ns#"
   xmlns:svg="http://www.w3.org/2000/svg"
   xmlns="http://www.w3.org/2000/svg"
   viewBox="0 0 636 210.66667"
   height="210.66667"
   width="636"
   xml:space="preserve"
   id="svg2"
   version="1.1"><metadata
     id="metadata8"><rdf:RDF><cc:Work
         rdf:about=""><dc:format>image/svg+xml</dc:format><dc:type
           rdf:resource="http://purl.org/dc/dcmitype/StillImage" /></cc:Work></rdf:RDF></metadata><defs
     id="defs6" /><g
     transform="matrix(1.3333333,0,0,-1.3333333,0,210.66667)"
     id="g10"><g
       transform="scale(0.1)"
       id="g12"><path
         id="path14"
         style="fill:#2b8505;fill-opacity:1;fill-rule:evenodd;stroke:none"
         d="M 1005.59,502.461 H 847.539 v 158.09 h 158.051 v -158.09 m 0,-222.891 H 847.539 V 437.66 H 1005.59 V 279.57 M 783.32,502.461 H 625.23 v 158.09 h 158.09 v -158.09 m 0,-222.891 H 625.23 V 437.66 H 783.32 V 279.57 m 594.84,294.84 -264.37,264.969 -243.591,243.631 -1.961,-1.92 c -1.289,1.72 -14.879,-0.23 -40.816,-5.86 -25.902,-5.62 -57.031,-26.13 -93.281,-61.56 15.078,-18.979 15.738,-36.908 1.91,-53.748 L 666.719,889.961 C 649.02,875.66 630.469,876.762 611.02,893.199 L 503.48,1000.7 c -16.41,19.46 -17.539,38.01 -3.25,55.75 l 69.969,69.33 c 15.973,13.36 33.242,13.36 51.789,0 14.301,12.5 30.282,30.7 47.973,54.42 17.699,23.75 29.809,50.31 36.289,79.68 0.43,4.34 22.27,27.89 65.43,70.67 43.199,43.16 105.859,79.68 187.929,109.49 82.501,29.8 182.071,27.19 298.671,-7.81 l -9.69,-29.14 c -5.23,4.76 -38.04,6.05 -98.51,3.9 -60.9,-2.58 -119.03,-38.67 -174.299,-108.24 -2.191,-0.86 -5.39,-10.31 -9.73,-28.48 -3.86,-18.12 4.769,-39.96 25.937,-65.47 L 1455.27,741.52 v 477.58 c -2.61,102.35 -38.04,187.42 -106.25,255.28 -67.85,67.81 -152.93,103 -255.27,105.62 H 520.941 C 418.551,1577.38 333.48,1542.19 265.66,1474.38 197.809,1406.52 162.66,1321.45 160.039,1219.1 V 615.199 c 0,-8.211 0.231,-16.219 0.66,-23.949 l 323.321,323.32 -31.129,31.051 14.918,14.969 98.48,-98.52 -15.551,-14.879 -31.09,31.09 L 58.9805,417.582 0,387.148 161.988,388.441 V 5.55078 H 1453.95 V 389.059 l 110.78,-1.25 -186.57,186.601" /><path
         id="path16"
         style="fill:#000000;fill-opacity:1;fill-rule:nonzero;stroke:none"
         d="m 1935.55,833.98 c 0,-11.789 -1.53,-22.421 -4.53,-31.871 -3.05,-9.379 -7,-17.66 -11.88,-24.839 -4.92,-7.192 -10.62,-13.36 -17.19,-18.442 -6.56,-5 -13.4,-9.137 -20.47,-12.348 -6.99,-3.242 -14.14,-5.621 -21.4,-7.179 -7.31,-1.492 -14.14,-2.192 -20.47,-2.192 h -230.16 v 59.692 h 230.16 c 11.44,0 20.35,3.32 26.72,10 6.33,6.75 9.53,15.82 9.53,27.179 0,5.508 -0.86,10.551 -2.5,15.161 -1.68,4.57 -4.14,8.519 -7.34,11.879 -3.13,3.32 -6.96,5.929 -11.41,7.808 -4.49,1.871 -9.49,2.813 -15,2.813 h -137.34 c -9.61,0 -19.97,1.718 -31.1,5.16 -11.17,3.429 -21.52,8.937 -31.09,16.558 -9.61,7.692 -17.58,17.731 -23.91,30.161 -6.37,12.378 -9.53,27.5 -9.53,45.308 0,17.891 3.16,33.012 9.53,45.312 6.33,12.38 14.3,22.42 23.91,30.16 9.57,7.69 19.92,13.28 31.09,16.72 11.13,3.43 21.49,5.15 31.1,5.15 h 203.12 v -59.69 h -203.12 c -11.25,0 -20.08,-3.43 -26.41,-10.308 -6.37,-6.871 -9.53,-16.012 -9.53,-27.344 0,-11.488 3.16,-20.547 9.53,-27.187 6.33,-6.563 15.16,-9.84 26.41,-9.84 h 137.81 c 6.33,-0.242 13.12,-1.18 20.31,-2.821 7.19,-1.558 14.3,-4.019 21.41,-7.339 7.18,-3.36 13.94,-7.621 20.31,-12.813 6.44,-5.117 12.19,-11.25 17.19,-18.437 5,-7.192 8.94,-15.469 11.87,-24.84 2.89,-9.301 4.38,-19.813 4.38,-31.571 z m 372.38,-66.871 c 0,-4.3 -0.78,-8.238 -2.34,-11.879 -1.49,-3.671 -3.6,-6.832 -6.41,-9.531 -2.73,-2.73 -5.9,-4.84 -9.53,-6.398 -3.67,-1.492 -7.58,-2.192 -11.72,-2.192 H 2143.4 c -12.74,0 -25.59,1.332 -38.6,4.063 -12.92,2.808 -25.46,7.066 -37.65,12.808 -12.19,5.711 -23.67,13.008 -34.38,21.879 -10.62,8.832 -20,19.371 -28.12,31.563 -8.05,12.187 -14.34,26.098 -18.91,41.719 -4.61,15.699 -6.87,33.199 -6.87,52.5 v 164.529 h 59.68 V 901.641 c 0,-16.801 2.35,-31.02 7.04,-42.661 4.68,-11.679 10.62,-21.402 17.81,-29.21 7.19,-7.821 15.04,-13.989 23.59,-18.442 8.52,-4.379 16.64,-7.656 24.38,-9.848 7.81,-2.101 14.61,-3.39 20.47,-3.902 5.93,-0.547 9.76,-0.777 11.56,-0.777 h 105 v 269.369 h 59.53 z" /><path
         id="path18"
         style="fill:#000000;fill-opacity:1;fill-rule:nonzero;stroke:none"
         d="m 2679.73,737.109 h -272.19 c -4.3,0 -8.24,0.7 -11.88,2.192 -3.67,1.558 -6.83,3.668 -9.53,6.398 -2.73,2.699 -4.84,5.86 -6.4,9.531 -1.49,3.641 -2.19,7.579 -2.19,11.879 v 299.061 h 59.69 V 796.801 h 242.5 z" /><path
         id="path20"
         style="fill:#000000;fill-opacity:1;fill-rule:nonzero;stroke:none"
         d="m 3025.82,737.109 h -272.19 c -4.29,0 -8.24,0.7 -11.87,2.192 -3.67,1.558 -6.84,3.668 -9.53,6.398 -2.74,2.699 -4.85,5.86 -6.41,9.531 -1.48,3.641 -2.19,7.579 -2.19,11.879 v 299.061 h 59.69 V 796.801 h 242.5 z" /><path
         id="path22"
         style="fill:#000000;fill-opacity:1;fill-rule:nonzero;stroke:none"
         d="m 3070.16,737.109 h 59.6914 v 329.063 H 3070.16 Z" /><path
         id="path24"
         style="fill:#000000;fill-opacity:1;fill-rule:nonzero;stroke:none"
         d="M 3529.26,1066.17 3373.48,748.828 c -2.43,-4.918 -6.06,-8.828 -10.94,-11.719 -4.81,-3.007 -10.12,-4.531 -15.94,-4.531 -5.62,0 -10.9,1.524 -15.78,4.531 -4.8,2.891 -8.52,6.801 -11.09,11.719 l -155.47,317.342 h 66.72 l 115.62,-237.029 116.25,237.029 z" /><path
         id="path26"
         style="fill:#000000;fill-opacity:1;fill-rule:nonzero;stroke:none"
         d="m 3878.12,737.109 h -59.68 v 80.782 h -209.69 v -80.782 h -59.69 v 164.532 c 0,24.058 4.1,46.129 12.35,66.25 8.32,20.199 19.84,37.579 34.53,52.189 14.68,14.57 32.03,25.86 52.03,33.9 20.08,8.13 41.95,12.19 65.62,12.19 h 134.53 c 4.15,0 8.05,-0.78 11.72,-2.34 3.64,-1.49 6.8,-3.6 9.54,-6.41 2.81,-2.73 4.92,-5.94 6.4,-9.69 1.56,-3.67 2.34,-7.5 2.34,-11.56 z m -269.37,140.469 h 209.69 v 128.902 h -104.85 c -1.79,0 -5.62,-0.27 -11.56,-0.78 -5.86,-0.54 -12.65,-1.87 -20.47,-4.06 -7.73,-2.109 -15.86,-5.39 -24.37,-9.839 -8.56,-4.379 -16.41,-10.473 -23.6,-18.281 -7.18,-7.821 -13.12,-17.622 -17.81,-29.379 -4.69,-11.68 -7.03,-25.86 -7.03,-42.5 z" /><path
         id="path28"
         style="fill:#000000;fill-opacity:1;fill-rule:nonzero;stroke:none"
         d="m 4276.17,762.578 c 0,-4.297 -0.86,-8.277 -2.5,-12.027 -1.56,-3.672 -3.71,-6.84 -6.4,-9.531 -2.74,-2.622 -5.9,-4.61 -9.54,-6.098 -3.67,-1.563 -7.57,-2.344 -11.71,-2.344 -3.68,0 -7.35,0.703 -11.1,2.031 -3.75,1.371 -7.11,3.512 -10,6.563 L 4006.95,968.828 V 737.109 h -59.68 V 1040.7 c 0,6.14 1.71,11.64 5.15,16.57 3.44,5 7.81,8.75 13.13,11.25 5.7,2.26 11.56,2.85 17.5,1.71 5.93,-1.17 11.01,-3.98 15.31,-8.43 l 218.12,-227.351 v 231.721 h 59.69 z" /><path
         id="path30"
         style="fill:#000000;fill-opacity:1;fill-rule:nonzero;stroke:none"
         d="m 4379.88,936.801 h -38.12 l -8.75,115.619 h 56.25 z" /><path
         id="path32"
         style="fill:#000000;fill-opacity:1;fill-rule:nonzero;stroke:none"
         d="m 4761.99,833.98 c 0,-11.789 -1.52,-22.421 -4.53,-31.871 -3.05,-9.379 -6.99,-17.66 -11.87,-24.839 -4.93,-7.192 -10.63,-13.36 -17.19,-18.442 -6.56,-5 -13.4,-9.137 -20.47,-12.348 -6.99,-3.242 -14.14,-5.621 -21.41,-7.179 -7.3,-1.492 -14.14,-2.192 -20.47,-2.192 H 4435.9 v 59.692 h 230.15 c 11.45,0 20.36,3.32 26.72,10 6.33,6.75 9.53,15.82 9.53,27.179 0,5.508 -0.85,10.551 -2.5,15.161 -1.68,4.57 -4.14,8.519 -7.34,11.879 -3.12,3.32 -6.95,5.929 -11.41,7.808 -4.49,1.871 -9.49,2.813 -15,2.813 h -137.34 c -9.61,0 -19.96,1.718 -31.09,5.16 -11.17,3.429 -21.53,8.937 -31.1,16.558 -9.61,7.692 -17.57,17.731 -23.9,30.161 -6.37,12.378 -9.53,27.5 -9.53,45.308 0,17.891 3.16,33.012 9.53,45.312 6.33,12.38 14.29,22.42 23.9,30.16 9.57,7.69 19.93,13.28 31.1,16.72 11.13,3.43 21.48,5.15 31.09,5.15 h 203.13 v -59.69 h -203.13 c -11.25,0 -20.08,-3.43 -26.41,-10.308 -6.36,-6.871 -9.53,-16.012 -9.53,-27.344 0,-11.488 3.17,-20.547 9.53,-27.187 6.33,-6.563 15.16,-9.84 26.41,-9.84 h 137.81 c 6.33,-0.242 13.13,-1.18 20.32,-2.821 7.18,-1.558 14.29,-4.019 21.4,-7.339 7.19,-3.36 13.95,-7.621 20.31,-12.813 6.45,-5.117 12.19,-11.25 17.19,-18.437 5,-7.192 8.95,-15.469 11.88,-24.84 2.89,-9.301 4.37,-19.813 4.37,-31.571 z" /><path
         id="path34"
         style="fill:#000000;fill-opacity:1;fill-rule:nonzero;stroke:none"
         d="m 1616.09,167.422 v 229.687 h 31.1 v -94.218 h 119.84 v 94.218 h 31.09 V 167.422 h -31.09 V 275.391 H 1647.19 V 167.422 Z m 330.94,-6.25 c -33.36,0 -60.31,11.098 -80.94,33.277 -20.62,22.27 -30.93,51.492 -30.93,87.66 0,36.25 10.31,65.512 30.93,87.813 20.63,22.269 47.58,33.437 80.94,33.437 33.52,0 60.55,-11.168 81.09,-33.437 20.63,-22.301 30.94,-51.563 30.94,-87.813 0,-36.168 -10.31,-65.39 -30.94,-87.66 -20.54,-22.179 -47.57,-33.277 -81.09,-33.277 z m 0,27.5 c 23.95,0 43.28,8.598 57.97,25.777 14.69,17.192 22.03,39.731 22.03,67.66 0,28.012 -7.34,50.621 -22.03,67.813 -14.69,17.269 -34.02,25.937 -57.97,25.937 -23.87,0 -43.12,-8.668 -57.81,-25.937 -14.69,-17.192 -22.03,-39.801 -22.03,-67.813 0,-27.929 7.34,-50.468 22.03,-67.66 14.69,-17.179 33.94,-25.777 57.81,-25.777 z" /><path
         id="path36"
         style="fill:#000000;fill-opacity:1;fill-rule:nonzero;stroke:none"
         d="m 2125,167.422 h -30.16 v 229.687 h 44.69 l 65.63,-195.468 65.15,195.468 H 2315 V 167.422 h -30.16 V 361.801 L 2220,167.422 h -30 l -65,193.75 z" /><path
         id="path38"
         style="fill:#000000;fill-opacity:1;fill-rule:nonzero;stroke:none"
         d="m 2365.78,167.422 v 229.687 h 167.97 v -27.5 h -136.87 v -70.16 h 125 v -27.5 h -125 v -77.027 h 138.59 v -27.5 z" /><path
         id="path40"
         style="fill:#000000;fill-opacity:1;fill-rule:nonzero;stroke:none"
         d="m 2668.91,167.422 v 229.687 h 106.87 c 24.38,0 42.89,-5.308 55.63,-15.937 12.69,-10.551 19.06,-26.012 19.06,-46.402 0,-20.122 -6.64,-35.86 -19.85,-47.192 -3.35,-2.808 -6.95,-5.308 -10.78,-7.5 l 5.16,-2.5 c 13.95,-8.047 21.17,-21.527 21.72,-40.469 l 1.25,-41.879 c 0.19,-6.871 1.09,-11.832 2.65,-14.839 1.57,-3.051 4.58,-5.621 9.07,-7.813 v -5 h -38.28 c -0.86,1.871 -1.68,6.762 -2.5,14.692 -0.86,7.89 -1.49,16.71 -1.88,26.402 l -0.62,18.129 c -0.43,14.25 -3.91,24.41 -10.47,30.469 -6.56,6.128 -17.31,9.21 -32.19,9.21 H 2700 V 167.422 Z M 2700,293.359 h 76.88 c 14.37,0 24.88,3.121 31.56,9.371 6.64,6.329 10,16.329 10,30 0,13.211 -3.56,22.891 -10.63,29.071 -6.99,6.129 -18.08,9.219 -33.28,9.219 H 2700 Z" /><path
         id="path42"
         style="fill:#000000;fill-opacity:1;fill-rule:nonzero;stroke:none"
         d="m 2899.53,167.422 v 229.687 h 167.97 v -27.5 h -136.88 v -70.16 h 125 v -27.5 h -125 v -77.027 h 138.6 v -27.5 z" /><path
         id="path44"
         style="fill:#000000;fill-opacity:1;fill-rule:nonzero;stroke:none"
         d="m 3139.38,167.422 h -30.16 v 229.687 h 44.69 l 65.62,-195.468 65.16,195.468 h 44.69 V 167.422 h -30.16 v 194.379 l -64.84,-194.379 h -30 l -65,193.75 z" /><path
         id="path46"
         style="fill:#000000;fill-opacity:1;fill-rule:nonzero;stroke:none"
         d="m 3477.03,161.172 c -33.36,0 -60.31,11.098 -80.94,33.277 -20.62,22.27 -30.93,51.492 -30.93,87.66 0,36.25 10.31,65.512 30.93,87.813 20.63,22.269 47.58,33.437 80.94,33.437 33.52,0 60.55,-11.168 81.09,-33.437 20.63,-22.301 30.94,-51.563 30.94,-87.813 0,-36.168 -10.31,-65.39 -30.94,-87.66 -20.54,-22.179 -47.57,-33.277 -81.09,-33.277 z m 0,27.5 c 23.95,0 43.28,8.598 57.97,25.777 14.69,17.192 22.03,39.731 22.03,67.66 0,28.012 -7.34,50.621 -22.03,67.813 -14.69,17.269 -34.02,25.937 -57.97,25.937 -23.87,0 -43.12,-8.668 -57.81,-25.937 -14.69,-17.192 -22.03,-39.801 -22.03,-67.813 0,-27.929 7.34,-50.468 22.03,-67.66 14.69,-17.179 33.94,-25.777 57.81,-25.777 z" /><path
         id="path48"
         style="fill:#000000;fill-opacity:1;fill-rule:nonzero;stroke:none"
         d="m 3627.34,167.422 v 229.687 h 94.38 c 29.14,0 52.34,-10.429 69.53,-31.25 17.27,-20.738 25.94,-48.668 25.94,-83.75 0,-35 -8.87,-62.89 -26.57,-83.589 -17.61,-20.75 -41.4,-31.098 -71.4,-31.098 z m 31.1,26.558 h 56.87 c 22.27,0 39.46,7.661 51.57,22.969 12.18,15.321 18.28,37.031 18.28,65.16 0,28.2 -5.86,50 -17.5,65.313 -11.68,15.387 -28.25,23.129 -49.69,23.129 h -59.53 z" /><path
         id="path50"
         style="fill:#000000;fill-opacity:1;fill-rule:nonzero;stroke:none"
         d="m 3860.16,167.422 v 229.687 h 167.96 v -27.5 h -136.87 v -70.16 h 125 v -27.5 h -125 v -77.027 h 138.59 v -27.5 z" /><path
         id="path52"
         style="fill:#000000;fill-opacity:1;fill-rule:nonzero;stroke:none"
         d="m 4070.78,167.422 v 229.687 h 31.1 V 194.922 h 116.4 v -27.5 z" /><path
         id="path54"
         style="fill:#000000;fill-opacity:1;fill-rule:nonzero;stroke:none"
         d="m 4253.59,167.422 h 31.0898 V 397.11 H 4253.59 Z" /><path
         id="path56"
         style="fill:#000000;fill-opacity:1;fill-rule:nonzero;stroke:none"
         d="m 4367.66,167.422 h -30 V 397.109 H 4375 l 115,-186.718 v 186.718 h 30 V 167.422 h -34.06 L 4367.66,354.77 Z" /><path
         id="path58"
         style="fill:#000000;fill-opacity:1;fill-rule:nonzero;stroke:none"
         d="m 4666.72,161.172 c -31.88,0 -57.66,11.098 -77.34,33.277 -19.69,22.27 -29.54,51.492 -29.54,87.66 0,36.25 10.04,65.512 30.16,87.813 20.08,22.269 46.41,33.437 78.91,33.437 25.07,0 46.64,-7.027 64.68,-21.089 18.13,-14.071 28.75,-32.11 31.88,-54.071 h -30 c -2.93,15.199 -10.31,26.922 -22.19,35.16 -11.87,8.321 -27.3,12.5 -46.25,12.5 -22.42,0 -40.55,-8.711 -54.37,-26.089 -13.87,-17.309 -20.78,-40 -20.78,-68.129 0,-29.922 6.64,-53.051 20,-69.371 13.43,-16.372 32.34,-24.54 56.71,-24.54 23.64,0 42.74,8.641 57.35,25.942 2.26,2.699 4.37,5.547 6.25,8.598 2.5,4.058 4.57,9.718 6.25,17.031 1.76,7.258 2.65,14.219 2.65,20.777 v 2.813 h -72.03 v 26.25 h 100.63 V 167.578 h -19.38 l -7.5,28.902 -1.72,-2.031 c -18.86,-22.179 -43.67,-33.277 -74.37,-33.277 z" /></g></g></svg>